<svg width="536" height="400" viewBox="0 0 536 400" fill="none" xmlns="http://www.w3.org/2000/svg">
<path d="M309.461 5.22467H295.805V109.818H309.461V5.22467Z" fill="black"/>
<path d="M1.00995 398.378L128.096 232.8L157.114 257.55L207.437 169.825L253.248 186.175L302.226 89.1594L367.524 225.371L399.82 207.329L534.631 398.378H1.00995V398.378Z" fill="#3308AB"/>
<path d="M121.335 398.374L198.702 300.913L222.44 323.952L251.451 238.006L273.432 254.84L332.659 152.821L367.439 225.368L399.736 207.326L534.546 398.374H246.178H121.335Z" fill="#3333CC"/>
<path d="M338.594 264.42L299.909 316.696L267.838 302.52L248.039 347.705L208.476 353.022L193.529 398.208H477.504L338.594 264.42V264.42Z" fill="#5E33CC"/>
<path d="M309.529 300.987H323.91L333.868 352.623L346.038 300.987H359.315L370.011 352.623L382.181 300.987H395.087L377.015 375.876H363.742L352.308 325.426L340.875 375.876H326.86L309.529 300.987V300.987Z" fill="white"/>
<path d="M411.633 300.987H434.499L456.625 375.876H442.61L437.449 359.718L411.633 359.324L407.575 375.876H393.192L411.633 300.987V300.987Z" fill="white"/>
<path d="M421.087 317.85H428.095L434.733 346.519L415.189 346.231L421.087 317.85V317.85Z" fill="#3333CC"/>
<path d="M302.573 4.84627V60.8159C302.573 60.8159 321.347 29.2834 352.635 40.3213C383.925 51.355 413.651 26.9193 413.651 26.9193C413.651 26.9193 382.36 33.2246 358.11 15.0929C333.861 -3.03753 302.573 4.84627 302.573 4.84627" fill="#FF0060"/>
</svg>
