<?xml version="1.0" encoding="UTF-8" standalone="no"?><!DOCTYPE svg PUBLIC "-//W3C//DTD SVG 1.1//EN" "http://www.w3.org/Graphics/SVG/1.1/DTD/svg11.dtd"><svg width="100%" height="100%" viewBox="0 0 561 288" version="1.1" xmlns="http://www.w3.org/2000/svg" xmlns:xlink="http://www.w3.org/1999/xlink" xml:space="preserve" xmlns:serif="http://www.serif.com/" style="fill-rule:evenodd;clip-rule:evenodd;stroke-linejoin:round;stroke-miterlimit:2;"><g id="Layer-1" serif:id="Layer 1"><rect x="306.969" y="3.175" width="9.949" height="75.608"/><path d="M92.229,287.302l92.582,-119.692l21.14,17.891l36.66,-63.414l33.373,11.819l35.681,-70.13l47.569,98.464l23.528,-13.042l98.21,138.104l-388.743,0Z" style="fill:#3308ab;fill-rule:nonzero;"/><path d="M179.947,287.302l56.362,-70.452l17.293,16.654l21.135,-62.128l16.013,12.169l43.147,-73.747l25.337,52.442l23.528,-13.042l98.209,138.104l-210.076,0l-90.948,0Z" style="fill:#33c;fill-rule:nonzero;"/><path d="M338.145,190.59l-28.182,37.789l-23.364,-10.247l-14.423,32.663l-28.822,3.843l-10.889,32.664l206.876,0l-101.196,-96.712Z" style="fill:#5e33cc;fill-rule:nonzero;"/><path d="M316.918,216.963l10.477,0l7.254,37.326l8.866,-37.326l9.672,0l7.792,37.326l8.866,-37.326l9.402,0l-13.165,54.135l-9.67,0l-8.329,-36.469l-8.329,36.469l-10.21,0l-12.626,-54.135Z" style="fill:#fff;fill-rule:nonzero;"/><path d="M391.391,216.963l16.658,0l16.119,54.135l-10.21,0l-3.76,-11.68l-18.807,-0.285l-2.956,11.965l-10.478,0l13.434,-54.135Z" style="fill:#fff;fill-rule:nonzero;"/><path d="M398.241,229.215l5.105,0l4.836,20.724l-14.238,-0.208l4.297,-20.516Z" style="fill:#33c;fill-rule:nonzero;"/><path d="M311.944,2.891l0,40.459c0,0 13.677,-22.794 36.47,-14.815c22.795,7.976 44.45,-9.688 44.45,-9.688c0,0 -22.795,4.558 -40.461,-8.549c-17.666,-13.106 -40.459,-7.407 -40.459,-7.407" style="fill:#ff0060;fill-rule:nonzero;"/></g></svg>