<?xml version="1.0" encoding="UTF-8" standalone="no"?><!DOCTYPE svg PUBLIC "-//W3C//DTD SVG 1.1//EN" "http://www.w3.org/Graphics/SVG/1.1/DTD/svg11.dtd"><svg width="100%" height="100%" viewBox="0 0 60 60" version="1.1" xmlns="http://www.w3.org/2000/svg" xmlns:xlink="http://www.w3.org/1999/xlink" xml:space="preserve" xmlns:serif="http://www.serif.com/" style="fill-rule:evenodd;clip-rule:evenodd;stroke-linejoin:round;stroke-miterlimit:1.41421;"><g id="g1003"><g id="g896"><path id="path32" d="M36.55,1.244c0,0.1 0,0.201 0,0.306c0,3.576 -2.943,6.517 -6.517,6.517c-3.576,0 -6.517,-2.941 -6.517,-6.517c0,-0.105 0,-0.206 0,-0.306l-21.886,0l0,56.837l56.837,0l0,-56.837l-21.917,0Zm-7.795,50.753l-2.768,-13.695l-0.047,0l-2.995,13.695l-3.813,0l-4.32,-20.122l3.766,0l2.577,13.694l0.047,0l3.106,-13.694l3.522,0l2.789,13.863l0.047,0l2.942,-13.863l3.697,0l-4.801,20.122l-3.749,0Zm20.734,0l-1.284,-4.479l-6.776,0l-0.987,4.479l-3.766,0l4.87,-20.122l5.941,0l5.92,20.122l-3.918,0Z" style="fill:#fff;fill-rule:nonzero;"/><path id="polygon34" d="M47.281,44.217l-1.886,-7.383l-1.584,0l-1.642,7.383l5.112,0Z" style="fill:#fff;fill-rule:nonzero;"/></g></g></svg>