<svg viewBox="0 0 1280 800" xmlns="http://www.w3.org/2000/svg" fill-rule="evenodd" clip-rule="evenodd" stroke-linejoin="round" stroke-miterlimit="2"><path d="M25.81 147.56l17.09-14.21 14.63-19.36 13.6-19.78L89 75.84l18.33-27.7 13.74-1.95 17.34-25.3 3.42-9.7L146.89.39l4.2 1.46 9.26 16.24 5.72 2.39 4.25 9.22 8.79 19.35 12.29 7.23 49.93 90.98-215.52.3z" fill="url(#_Linear1)" fill-rule="nonzero" transform="matrix(5.64555 0 0 5.04048 -122.76 49.33)"/><path d="M-31.51 116.78l68.64-46.25 9.86 3 9.4-28.84 16.46-6.33 12.3-12.78 11.2-36.22 6.6 2.5 13.62 27.83L130 27.08l54.04 90.64-124.13-.78-91.43-.16z" fill="url(#_Linear2)" fill-rule="nonzero" transform="matrix(5.20749 0 0 5.05378 280.86 196.35)"/><path d="M46.77-53.17l-19.7-3.2-10.37-3.98-8.91-12.1-6.17-1.73-9.6 16.87-16.87 16.5-6-2.84-3.4.34-10.89 17.1-17.3 4.7L-108.68.36 81.21.25 46.77-53.17z" fill="url(#_Linear3)" fill-rule="nonzero" transform="matrix(4.97863 0 0 5.22278 834.27 790.32)"/><g><path d="M761.25 567.34h32.54l22.53 112.36 27.54-112.36h30.04l24.2 112.36 27.53-112.36h29.2L913.95 730.3H883.9l-25.87-109.77-25.86 109.77h-31.71l-39.22-162.95zM992.55 567.34h51.73l50.06 162.95h-31.7l-11.68-35.16-58.41-.85-9.18 36.01h-32.55l41.73-162.95z" fill="#fff" fill-rule="nonzero"/><path d="M1013.82 604.22h15.85l15.02 62.38-44.22-.62 13.35-61.76z" fill="#5e33cc" fill-opacity=".96" fill-rule="nonzero"/></g><defs><linearGradient id="_Linear1" x1="0" y1="0" x2="1" y2="0" gradientUnits="userSpaceOnUse" gradientTransform="matrix(256.1 0 0 147.257 0 73.63)"><stop offset="0" stop-color="#3208ab" stop-opacity="0"/><stop offset=".15" stop-color="#3308ab" stop-opacity=".48"/><stop offset=".33" stop-color="#3308ab" stop-opacity=".87"/><stop offset="1" stop-color="#3308ab"/></linearGradient><linearGradient id="_Linear2" x1="0" y1="0" x2="1" y2="0" gradientUnits="userSpaceOnUse" gradientTransform="matrix(198.312 0 0 116.938 0 58.47)"><stop offset="0" stop-color="#3636cc" stop-opacity="0"/><stop offset="1" stop-color="#33c"/></linearGradient><linearGradient id="_Linear3" x1="0" y1="0" x2="1" y2="0" gradientUnits="userSpaceOnUse" gradientTransform="matrix(136.288 0 0 63.713 -69.62 -31.86)"><stop offset="0" stop-color="#5d33cd" stop-opacity="0"/><stop offset=".2" stop-color="#5d33cd" stop-opacity=".41"/><stop offset=".41" stop-color="#5e33cc" stop-opacity=".82"/><stop offset="1" stop-color="#5e33cc"/></linearGradient></defs></svg>
